<svg width="584" height="174" viewBox="0 0 584 174" version="1.1" xmlns="http://www.w3.org/2000/svg" xmlns:xlink="http://www.w3.org/1999/xlink">
<g id="Canvas" fill="none">
<g id="logo_lovable_whit">
<path id="Vector" d="M 41.6619 1.41849C 41.6619 1.41849 42.9179 2.30252 42.6655 3.67645C 42.6655 3.67645 42.4178 4.56048 41.3297 4.88524C 41.3297 4.88524 33.624 8.43897 28.396 14.8561C 28.396 14.8561 42.7911 5.33111 46.7302 3.91755C 46.7302 3.91755 47.7326 3.35279 48.6494 4.60451C 48.6494 4.60451 49.4064 5.37074 49.0742 5.89698C 49.0742 5.89698 43.8803 9.8151 43.0434 10.7002C 43.0434 10.7002 47.9861 8.80337 49.0742 9.04116C 49.0742 9.04116 50.37 8.8419 50.4968 10.2907C 50.4968 10.2907 50.45 11.2639 49.6542 11.7076C 49.6542 11.7076 42.8368 16.6341 40.9506 19.055C 40.9506 19.055 45.7665 15.946 47.9004 14.7339C 47.9004 14.7339 49.8654 14.047 49.7455 16.3875C 49.7455 16.3875 48.6494 19.3368 46.4379 21.6785C 46.4379 21.6785 34.1287 36.5308 29.1073 42.0364C 29.1073 42.0364 27.7874 42.8874 26.624 41.4672C 26.624 41.4672 25.4959 39.9205 26.3716 38.5597L 31.7436 30.9866L 24.7732 37.7726C 24.7732 37.7726 23.1736 38.3164 22.4794 37.2254C 22.4794 37.2254 21.9805 36.4372 22.6347 35.1954L 30.9923 24.2094L 21.0054 33.8368C 21.0054 33.8368 20.1868 34.2893 19.2117 33.4735C 19.2117 33.4735 18.5575 32.9264 18.9366 31.656L 23.1736 24.5738C 23.1736 24.5738 20.7542 26.0887 16.9236 32.0204C 16.9236 32.0204 16.1735 32.8053 15.1985 32.1084C 15.1985 32.1084 14.0978 31.3235 14.5054 30.3503C 14.5054 30.3503 19.0336 20.1438 20.7542 18.3383C 20.7542 18.3383 17.6475 20.0634 12.0906 27.2061C 12.0906 27.2061 11.4261 27.9327 10.1713 27.2061C 10.1713 27.2061 8.82408 26.7514 8.78868 25.4843L 9.86193 21.968L 6.90822 24.5111C 6.90822 24.5111 6.08959 25.088 5.14993 23.9089C 5.14993 23.9089 4.36326 23.0623 4.58704 21.9405L 5.96856 19.1574L 4.04813 20.4256C 4.04813 20.4256 3.20554 20.7878 2.54675 20.0942C 2.54675 20.0942 1.57168 19.3401 1.69841 17.8825L 5.49931 12.7677C 5.49931 12.7677 3.83007 13.6462 2.38575 14.8837C 2.38575 14.8837 1.82401 15.3703 0.911754 14.7626C 0.911754 14.7626 -0.0279108 14.309 0.000632914 13.0408L 2.23047 9.85363C 2.23047 9.85363 0.637726 9.24593 1.56026 7.6309C 1.56026 7.6309 4.19657 4.40305 11.0254 0.205298C 11.0254 0.205298 12.44 -0.477263 13.1981 0.646761C 13.1981 0.646761 13.7427 1.37336 13.2381 2.17812L 10.1713 5.59203C 10.1713 5.59203 9.86192 6.49807 10.7388 6.25807L 16.9236 2.32454C 16.9236 2.32454 18.7767 1.62877 20.1297 2.80564C 20.1297 2.80564 20.6914 3.38031 19.9972 3.92856L 14.2588 9.04116L 22.8859 5.16928C 22.8859 5.16928 24.4295 4.71571 25.0198 5.53148C 25.0198 5.53148 25.6797 6.13918 24.9901 6.62357L 20.5647 10.6177C 20.5647 10.6177 34.4152 2.68674 39.2654 1.25556C 39.2654 1.25556 40.7953 0.667677 41.6619 1.41849" transform="translate(483.007 0) scale(2)" fill="white"/>
<path id="Vector_2" d="M 35.481 62.7578L 0 62.7578L 0 0.623846C 0 0.623846 2.65457 -0.779808 5.77268 0.623846L 5.77268 57.3117L 35.481 57.3117C 35.481 57.3117 36.6273 60.1707 35.481 62.7578Z" transform="translate(0 12.5782) scale(2)" fill="white"/>
<path id="Vector_3" d="M 6.66667 6.66158C 2.21842 11.1059 1.49827e-06 16.4321 1.49827e-06 22.6368C 1.49827e-06 28.8173 2.21842 34.0994 6.64955 38.4766C 11.0807 42.8549 16.504 45.0413 22.9081 45.0413C 29.1854 45.0413 34.5117 42.8142 38.8914 38.3467C 43.2723 33.8726 45.461 28.4584 45.461 22.0952C 45.461 16.0468 43.2198 10.8516 38.7487 6.50635C 34.2765 2.16768 28.8646 3.3597e-07 22.513 3.3597e-07C 16.3955 3.3597e-07 11.1149 2.22273 6.66667 6.66158L 6.66667 6.66158ZM 34.6087 10.0248C 37.9061 13.234 39.5627 17.2523 39.5627 22.082C 39.5627 27.2639 37.9689 31.52 34.7925 34.8469C 31.6105 38.1761 27.6212 39.8395 22.811 39.8395C 17.978 39.8395 13.9476 38.1871 10.7256 34.8866C 7.50928 31.5817 5.90513 27.4687 5.90513 22.541C 5.90513 17.6178 7.50928 13.4938 10.7256 10.1823C 13.9476 6.86304 17.7999 5.20508 22.2892 5.20508C 27.2022 5.20508 31.3068 6.8135 34.6087 10.0248" transform="translate(61.5386 48.0105) scale(2)" fill="white"/>
<path id="Vector_4" d="M 40.4282 0.786293L 22.4616 43.2845C 19.6004 44.9425 17.2107 43.2845 17.2107 43.2845L 8.36242e-07 0.786293C 8.36242e-07 0.786293 3.65131 -0.823231 6.01359 0.786293L 20.1336 35.0586L 34.2936 0.786293C 37.0292 -0.982862 40.4282 0.786293 40.4282 0.786293" transform="translate(144.619 51.5222) scale(2)" fill="white"/>
<path id="Vector_5" d="M 45.0888 43.4714L 45.0888 0.973199C 42.2504 -0.768432 39.4817 0.973199 39.4817 0.973199L 40.0377 9.492C 38.1869 6.47002 35.8064 4.135 32.8892 2.48144C 29.9709 0.828979 26.7318 6.38342e-07 23.1718 6.38342e-07C 16.5325 6.38342e-07 11.0065 2.13355 6.60959 6.39516C 2.20701 10.6634 1.6028e-06 15.9917 1.6028e-06 22.3803C 1.6028e-06 28.6125 2.16019 33.8748 6.48856 38.1475C 10.8055 42.4267 16.2117 44.5602 22.69 44.5602C 26.5423 44.5602 29.9424 43.7665 32.8892 42.1658C 35.8292 40.5639 38.1915 38.2421 39.9589 35.1926L 39.4817 43.4714C 39.4817 43.4714 41.9764 45.3397 45.0888 43.4714ZM 34.563 10.1272C 37.8935 13.4828 39.5616 17.4152 39.5616 21.9179C 39.5616 26.7553 37.8992 30.8892 34.5802 34.3273C 31.2611 37.7632 27.3506 39.4773 22.8498 39.4773C 18.2189 39.4773 14.2399 37.8524 10.9037 34.5926C 7.57208 31.3406 5.90399 27.3432 5.90399 22.6093C 5.90399 17.6453 7.57208 13.4828 10.9037 10.1272C 14.2399 6.76837 18.2703 5.08618 23.012 5.08618C 27.3746 5.08618 31.2257 6.76837 34.563 10.1272" transform="translate(218.195 48.9734) scale(2)" fill="white"/>
<path id="Vector_6" d="M 7.10806e-06 0.868002L 7.10806e-06 61.8824C 7.10806e-06 61.8824 2.51642 63.7506 5.61741 61.8824L 5.37192 53.7004C 7.32089 56.7158 9.7574 59.0123 12.6871 60.5998C 15.61 62.1796 18.896 62.9712 22.5244 62.9712C 28.7961 62.9712 34.128 60.8365 38.5078 56.5584C 42.8875 52.2858 45.0785 47.128 45.0785 41.1006C 45.0785 34.5799 42.9515 29.1712 38.7087 24.8699C 34.4603 20.5665 29.0655 18.4109 22.5244 18.4109C 18.9188 18.4109 15.6511 19.2124 12.7042 20.812C 9.76881 22.4072 7.32089 24.7125 5.37192 27.7257C 5.50893 25.6197 5.61284 23.6898 5.67563 21.9514C 5.74528 20.2109 5.77839 18.9834 5.77839 18.2623L 5.77839 0.868002C 2.52212 -1.085 7.10806e-06 0.868002 7.10806e-06 0.868002L 7.10806e-06 0.868002ZM 34.1908 28.4226C 37.511 31.7 39.1734 35.6962 39.1734 40.4059C 39.1734 45.371 37.511 49.5236 34.1908 52.8715C 30.8661 56.2204 26.8414 57.8883 22.1168 57.8883C 17.7668 57.8883 13.9259 56.2127 10.6057 52.8494C 7.28093 49.4972 5.61741 45.5526 5.61741 41.0191C 5.61741 36.1575 7.25239 32.0236 10.5201 28.6119C 13.7935 25.2046 17.7154 23.496 22.2778 23.496C 26.8996 23.496 30.8661 25.1441 34.1908 28.4226" transform="translate(312.718 12.1504) scale(2)" fill="white"/>
<path id="Vector_7" d="M -3.34497e-06 61.9923L -3.34497e-06 0.983476C -3.34497e-06 0.983476 2.90689 -1.22934 5.78068 0.983476L 5.78068 61.9923C 2.7813 63.7659 -3.34497e-06 61.9923 -3.34497e-06 61.9923Z" transform="translate(407.998 11.9722) scale(2)" fill="white"/>
<path id="Vector_8" d="M 45.7076 23.9381C 45.7076 16.7316 43.6103 10.9397 39.4189 6.5658C 35.223 2.1886 29.6958 4.03163e-07 22.835 4.03163e-07C 16.2928 4.03163e-07 10.8466 2.13466 6.50569 6.40397C 2.16704 10.6733 5.15683e-06 16.0028 5.15683e-06 22.4012C 5.15683e-06 28.8525 2.17161 34.2172 6.52966 38.5009C 10.8866 42.7845 16.3795 44.9191 23.0062 44.9191C 27.8393 44.9191 32.098 43.6476 35.7733 41.1045C 39.4429 38.557 42.303 34.9042 44.3261 30.1483L 37.9232 30.1483C 36.4777 33.1835 34.4374 35.5306 31.8 37.2073C 29.1694 38.8796 26.1757 39.7173 22.835 39.7173C 18.1789 39.7173 14.2582 38.2576 11.0761 35.3446C 7.89405 32.4305 6.16773 28.683 5.89941 24.0955L 45.7076 24.0955L 45.7076 23.9381L 45.7076 23.9381ZM 6.06041 19.4937C 6.64955 15.1573 8.43866 11.6685 11.4255 9.03733C 14.418 6.40396 18.0408 5.08178 22.2835 5.08178C 26.8756 5.08178 30.6137 6.29828 33.5035 8.72798C 36.3807 11.1511 38.3582 14.7477 39.4315 19.4937L 6.06041 19.4937L 6.06041 19.4937Z" transform="translate(424.648 48.2537) scale(2)" fill="white"/>
<path id="Vector_9" d="M -2.78747e-06 9.64062L 1.9581 2.28459e-06L 5.14929 6.96872L 8.45694 2.28459e-06L 10.2152 9.64062L 8.77549 9.64062L 7.87807 4.22857L 5.12646 10.0535L 2.45134 4.22197L 1.45116 9.64062L -2.78747e-06 9.64062L -2.78747e-06 9.64062Z" transform="translate(156.842 153.629) scale(2)" fill="white"/>
<path id="Vector_10" d="M 1.40321 0L 2.57841e-06 0L 2.57841e-06 8.96687L 1.40321 8.96687L 1.40321 0Z" transform="translate(181.212 154.98) scale(2)" fill="white"/>
<path id="Vector_11" d="M 1.40321 0L 0 0L 0 8.96687L 1.40321 8.96687L 1.40321 0Z" transform="translate(196.1 154.98) scale(2)" fill="white"/>
<path id="Vector_12" d="M 4.04184e-06 9.57567L 4.04184e-06 2.01582e-07L 6.78199 6.84102L 6.78199 0.609902L 8.1852 0.609902L 8.1852 10.1217L 1.40321 3.29831L 1.40321 9.57567L 4.04184e-06 9.57567Z" transform="translate(203.375 153.757) scale(2)" fill="white"/>
<path id="Vector_13" d="M 3.5417 1.27155L 3.5417 8.96687L 2.1385 8.96687L 2.1385 1.27155L 2.09061e-06 1.27155L 2.09061e-06 1.1423e-06L 5.67336 1.1423e-06L 5.67336 1.27155L 3.5417 1.27155L 3.5417 1.27155Z" transform="translate(222.252 154.98) scale(2)" fill="white"/>
<path id="Vector_14" d="M 1.40321 0L 3.62372e-06 0L 3.62372e-06 8.96687L 1.40321 8.96687L 1.40321 0Z" transform="translate(236.106 154.98) scale(2)" fill="white"/>
<path id="Vector_15" d="M -3.97215e-06 9.64062L 1.9581 2.28459e-06L 5.15043 6.96872L 8.45694 2.28459e-06L 10.2152 9.64062L 8.77549 9.64062L 7.87807 4.22857L 5.12646 10.0535L 2.45134 4.22197L 1.45116 9.64062L -3.97215e-06 9.64062L -3.97215e-06 9.64062Z" transform="translate(242.731 153.629) scale(2)" fill="white"/>
<path id="Vector_16" d="M 1.41463 4.626C 1.41463 5.61571 1.76058 6.42929 2.45133 7.06781C 3.13753 7.70744 3.93104 8.0267 4.8296 8.0267C 5.80579 8.0267 6.629 7.70083 7.2992 7.0513C 7.97055 6.39296 8.30508 5.5926 8.30508 4.64802C 8.30508 3.69354 7.97398 2.89318 7.31177 2.24695C 6.65298 1.59631 5.83776 1.27155 4.86613 1.27155C 3.89907 1.27155 3.08158 1.59631 2.4148 2.24695C 1.74802 2.88878 1.41463 3.68142 1.41463 4.626L 1.41463 4.626ZM 3.41466e-06 4.61059C 3.41466e-06 3.34895 0.479531 2.26456 1.43974 1.35852C 2.39424 0.452475 3.54285 1.27668e-06 4.88441 1.27668e-06C 6.20884 1.27668e-06 7.34602 0.456872 8.29367 1.37062C 9.24475 2.28437 9.72086 3.38198 9.72086 4.66344C 9.72086 5.9526 9.24246 7.04689 8.28796 7.94413C 7.32774 8.84687 6.16887 9.29825 4.81247 9.29825C 3.61135 9.29825 2.53354 8.89751 1.5779 8.09495C 0.525204 7.20872 3.41466e-06 6.04727 3.41466e-06 4.61059" transform="translate(266.173 154.64) scale(2)" fill="white"/>
<path id="Vector_17" d="M 1.40321 4.07115L 1.92727 4.07115C 3.2163 4.07115 3.86139 3.59335 3.86139 2.63666C 3.86139 1.7119 3.1969 1.24843 1.86676 1.24843L 1.40321 1.24843L 1.40321 4.07115L 1.40321 4.07115ZM 1.40321 5.32508L 1.40321 8.96687L -8.50179e-06 8.96687L -8.50179e-06 1.1423e-06L 1.59045 1.1423e-06C 2.36913 1.1423e-06 2.95713 0.0517412 3.35445 0.157428C 3.75635 0.260913 4.11029 0.459078 4.41514 0.749717C 4.94948 1.25283 5.21664 1.88695 5.21664 2.65318C 5.21664 3.47445 4.93121 4.12509 4.36148 4.60619C 3.79061 5.08508 3.02221 5.32508 2.05401 5.32508L 1.40321 5.32508Z" transform="translate(296.758 154.98) scale(2)" fill="white"/>
<path id="Vector_18" d="M 1.40436 1.1423e-06L 1.40436 7.69422L 4.13885 7.69422L 4.13885 8.96577L 8.5018e-06 8.96577L 8.5018e-06 1.1423e-06L 1.40436 1.1423e-06Z" transform="translate(310.081 154.98) scale(2)" fill="white"/>
<path id="Vector_19" d="M 5.95651 6.0814L 4.57726 3.03189L 3.13182 6.0814L 5.95651 6.0814ZM 6.52966 7.35295L 2.54723 7.35295L 1.51167 9.53053L 5.71432e-06 9.53053L 4.60239 0L 9.04038 9.53053L 7.50472 9.53053L 6.52966 7.35295L 6.52966 7.35295Z" transform="translate(319.922 153.851) scale(2)" fill="white"/>
<path id="Vector_20" d="M 7.33687 0.652836L 7.33687 2.25355C 6.52509 1.59962 5.68592 1.27265 4.81933 1.27265C 3.86369 1.27265 3.0576 1.60402 2.40338 2.26457C 1.74459 2.92401 1.41577 3.72877 1.41577 4.68105C 1.41577 5.62233 1.74459 6.41607 2.40338 7.0623C 3.06217 7.70853 3.86938 8.0322 4.82503 8.0322C 5.31941 8.0322 5.73842 7.95514 6.08437 7.79992C 6.27619 7.72285 6.476 7.61716 6.68265 7.48615C 6.89045 7.35405 7.10738 7.19662 7.33687 7.01056L 7.33687 8.64431C 6.53308 9.08357 5.69049 9.30485 4.80677 9.30485C 3.47777 9.30485 2.34401 8.85678 1.40321 7.96284C 0.46812 7.0612 -1.25436e-06 5.97241 -1.25436e-06 4.69866C -1.25436e-06 3.55703 0.391627 2.53759 1.17487 1.64365C 2.1385 0.548251 3.38529 -3.49408e-06 4.91524 -3.49408e-06C 5.751 -3.49408e-06 6.5582 0.217978 7.33687 0.652836" transform="translate(338.533 154.625) scale(2)" fill="white"/>
<path id="Vector_21" d="M 5.13216 1.27155L 1.4032 1.27155L 1.4032 3.42602L 5.02369 3.42602L 5.02369 4.69866L 1.4032 4.69866L 1.4032 7.69422L 5.13216 7.69422L 5.13216 8.96687L 4.45996e-06 8.96687L 4.45996e-06 1.1423e-06L 5.13216 1.1423e-06L 5.13216 1.27155L 5.13216 1.27155Z" transform="translate(356.75 154.98) scale(2)" fill="white"/>
<path id="Vector_22" d="M 1.40321 4.11738L 1.84849 4.11738C 3.17749 4.11738 3.84199 3.62748 3.84199 2.64768C 3.84199 1.73062 3.19576 1.27155 1.9033 1.27155L 1.40321 1.27155L 1.40321 4.11738ZM 3.15009 5.14563L 6.02843 8.96687L 4.31239 8.96687L 1.65553 5.29645L 1.40321 5.29645L 1.40321 8.96687L -2.92685e-06 8.96687L -2.92685e-06 1.1423e-06L 1.64412 1.1423e-06C 2.87264 1.1423e-06 3.75977 0.222379 4.30553 0.667144C 4.90837 1.16365 5.2098 1.81759 5.2098 2.63116C 5.2098 3.26639 5.02027 3.81133 4.64349 4.26821C 4.26557 4.72508 3.76777 5.01792 3.15009 5.14563" transform="translate(370.698 154.98) scale(2)" fill="white"/>
<path id="Vector_23" d="M 1.40321 7.69422L 2.03574 7.69422C 2.66598 7.69422 3.19005 7.63148 3.60793 7.50267C 4.02581 7.36726 4.40259 7.15258 4.74055 6.85753C 5.4313 6.25094 5.77611 5.45939 5.77611 4.48288C 5.77611 3.49978 5.43472 2.70273 4.75196 2.08952C 4.1377 1.54457 3.23229 1.27155 2.03574 1.27155L 1.40321 1.27155L 1.40321 7.69422L 1.40321 7.69422ZM -5.85369e-06 8.96687L -5.85369e-06 1.1423e-06L 1.95124 1.1423e-06C 2.88748 1.1423e-06 3.62619 0.0891709 4.16852 0.266417C 4.74967 0.44036 5.27831 0.737602 5.75214 1.15595C 6.71235 1.99924 7.19188 3.10896 7.19188 4.48288C 7.19188 5.86122 6.69179 6.97644 5.69161 7.82854C 5.19039 8.25459 4.66405 8.55073 4.11373 8.71697C 3.59994 8.8832 2.87036 8.96687 1.92727 8.96687L -5.85369e-06 8.96687L -5.85369e-06 8.96687Z" transform="translate(393.164 154.98) scale(2)" fill="white"/>
<path id="Vector_24" d="M 5.13102 1.27155L 1.40321 1.27155L 1.40321 3.42602L 5.02255 3.42602L 5.02255 4.69866L 1.40321 4.69866L 1.40321 7.69422L 5.13102 7.69422L 5.13102 8.96687L -4.45996e-06 8.96687L -4.45996e-06 1.1423e-06L 5.13102 1.1423e-06L 5.13102 1.27155L 5.13102 1.27155Z" transform="translate(411.077 154.98) scale(2)" fill="white"/>
<path id="Vector_25" d="M 5.72245 1.50384L 4.58413 2.15447C 4.37062 1.79777 4.16738 1.56439 3.97442 1.4576C 3.77462 1.3321 3.51545 1.27155 3.19804 1.27155C 2.80871 1.27155 2.48559 1.37724 2.2287 1.59081C 1.9718 1.79998 1.84279 2.0642 1.84279 2.38126C 1.84279 2.81942 2.18074 3.1706 2.85551 3.43922L 3.78261 3.80583C 4.53731 4.09977 5.08992 4.45867 5.43929 4.88252C 5.78753 5.30746 5.96335 5.82709 5.96335 6.4436C 5.96335 7.26928 5.67793 7.95074 5.10819 8.48908C 4.53275 9.03183 3.8203 9.30375 2.9697 9.30375C 2.16248 9.30375 1.4957 9.07146 0.969352 8.60908C 0.452139 8.1467 0.127884 7.49716 7.80493e-06 6.66047L 1.42148 6.35882C 1.48542 6.88506 1.59732 7.24946 1.75944 7.44983C 2.04831 7.83845 2.46961 8.0311 3.02335 8.0311C 3.46064 8.0311 3.82486 7.89019 4.11373 7.60835C 4.40259 7.32542 4.54758 6.96763 4.54758 6.53387C 4.54758 6.35993 4.52247 6.2003 4.47223 6.05608C 4.42199 5.91076 4.34322 5.77645 4.23704 5.65425C 4.13086 5.53315 3.99384 5.41866 3.82486 5.31297C 3.65588 5.20618 3.45493 5.1038 3.22201 5.00692L 2.3246 4.64802C 1.05155 4.12949 0.415603 3.37097 0.415603 2.37355C 0.415603 1.6987 0.682759 1.13723 1.21596 0.684761C 1.75029 0.227885 2.4148 -4.09883e-06 3.2106 -4.09883e-06C 4.28271 -4.09883e-06 5.1196 0.500913 5.72245 1.50384" transform="translate(431.711 154.63) scale(2)" fill="white"/>
<path id="Vector_26" d="M 5.13217 1.27155L 1.40321 1.27155L 1.40321 3.42602L 5.02255 3.42602L 5.02255 4.69866L 1.40321 4.69866L 1.40321 7.69422L 5.13217 7.69422L 5.13217 8.96687L -7.52618e-06 8.96687L -7.52618e-06 1.1423e-06L 5.13217 1.1423e-06L 5.13217 1.27155L 5.13217 1.27155Z" transform="translate(447.022 154.98) scale(2)" fill="white"/>
<path id="Vector_27" d="M 1.40322 4.11738L 1.84963 4.11738C 3.17749 4.11738 3.84313 3.62748 3.84313 2.64768C 3.84313 1.73062 3.19689 1.27155 1.90329 1.27155L 1.40322 1.27155L 1.40322 4.11738ZM 3.15009 5.14563L 6.02844 8.96687L 4.31238 8.96687L 1.65669 5.29645L 1.40322 5.29645L 1.40322 8.96687L 2.50873e-06 8.96687L 2.50873e-06 1.1423e-06L 1.64412 1.1423e-06C 2.87265 1.1423e-06 3.76093 0.222379 4.30668 0.667144C 4.90953 1.16365 5.20981 1.81759 5.20981 2.63116C 5.20981 3.26639 5.02141 3.81133 4.64463 4.26821C 4.26671 4.72508 3.76892 5.01792 3.15009 5.14563" transform="translate(460.972 154.98) scale(2)" fill="white"/>
<path id="Vector_28" d="M -4.59933e-06 9.64062L 1.95811 2.28459e-06L 5.15043 6.96872L 8.45693 2.28459e-06L 10.2164 9.64062L 8.77662 9.64062L 7.87921 4.22857L 5.12531 10.0535L 2.45133 4.22197L 1.4523 9.64062L -4.59933e-06 9.64062L -4.59933e-06 9.64062Z" transform="translate(482.787 153.629) scale(2)" fill="white"/>
<path id="Vector_29" d="M 1.40321 1.1423e-06L 1.40321 5.39664C 1.40321 6.16617 1.53337 6.72983 1.79369 7.08542C 2.18417 7.59955 2.7322 7.85716 3.43894 7.85716C 4.14911 7.85716 4.69944 7.59955 5.08878 7.08542C 5.35024 6.74084 5.4804 6.17828 5.4804 5.39664L 5.4804 1.1423e-06L 6.88475 1.1423e-06L 6.88475 5.77204C 6.88475 6.71662 6.57876 7.49496 5.96793 8.10707C 5.28174 8.78853 4.43797 9.12981 3.43894 9.12981C 2.43877 9.12981 1.5973 8.78853 0.914535 8.10707C 0.304841 7.49496 1.39374e-07 6.71662 1.39374e-07 5.77204L 1.39374e-07 1.1423e-06L 1.40321 1.1423e-06Z" transform="translate(507.158 154.98) scale(2)" fill="white"/>
<path id="Vector_30" d="M 4.17423 1.1423e-06L 4.17423 5.80067C 4.17423 6.49424 4.12286 7.01167 4.02239 7.35185C 3.92305 7.73937 3.75179 8.06633 3.51088 8.33385C 3.04163 8.86449 2.41936 9.12981 1.64411 9.12981C 1.05725 9.12981 0.509212 8.98119 -8.22305e-06 8.68504L 0.686198 7.52689C 1.02758 7.74707 1.34726 7.85716 1.64411 7.85716C 2.06199 7.85716 2.35087 7.70414 2.51185 7.39809C 2.67969 7.09313 2.76417 6.55919 2.76417 5.79627L 2.76417 1.1423e-06L 4.17423 1.1423e-06Z" transform="translate(522.697 154.98) scale(2)" fill="white"/>
<path id="Vector_31" d="M 5.13216 1.27155L 1.40322 1.27155L 1.40322 3.42602L 5.02369 3.42602L 5.02369 4.69866L 1.40322 4.69866L 1.40322 7.69422L 5.13216 7.69422L 5.13216 8.96687L 3.06622e-06 8.96687L 3.06622e-06 1.1423e-06L 5.13216 1.1423e-06L 5.13216 1.27155L 5.13216 1.27155Z" transform="translate(535.502 154.98) scale(2)" fill="white"/>
<path id="Vector_32" d="M 1.40321 4.11738L 1.84964 4.11738C 3.1775 4.11738 3.84312 3.62748 3.84312 2.64768C 3.84312 1.73062 3.1969 1.27155 1.9033 1.27155L 1.40321 1.27155L 1.40321 4.11738ZM 3.15009 5.14563L 6.02958 8.96687L 4.31239 8.96687L 1.65668 5.29645L 1.40321 5.29645L 1.40321 8.96687L -4.32059e-06 8.96687L -4.32059e-06 1.1423e-06L 1.64412 1.1423e-06C 2.87264 1.1423e-06 3.76092 0.222379 4.30668 0.667144C 4.90952 1.16365 5.2098 1.81759 5.2098 2.63116C 5.2098 3.26639 5.02142 3.81133 4.64464 4.26821C 4.26672 4.72508 3.76891 5.01792 3.15009 5.14563" transform="translate(549.451 154.98) scale(2)" fill="white"/>
<path id="Vector_33" d="M 2.0906e-06 0.801461C 2.0906e-06 0.584583 0.0833443 0.397428 0.247756 0.237796C 0.412168 0.0792661 0.608547 -2.82214e-06 0.838039 -2.82214e-06C 1.06639 -2.82214e-06 1.26277 0.0792661 1.42832 0.237796C 1.59273 0.397428 1.67494 0.58568 1.67494 0.808063C 1.67494 1.03265 1.59273 1.22421 1.42832 1.38274C 1.26733 1.53797 1.07096 1.61503 0.838039 1.61503C 0.600555 1.61503 0.401896 1.53797 0.240909 1.38274C 0.0810646 1.22751 2.0906e-06 1.03375 2.0906e-06 0.801461Z" transform="translate(564.208 170.008) scale(2)" fill="white"/>
<path id="Vector_34" d="M 1.67248e-06 0.801461C 1.67248e-06 0.584583 0.0833613 0.397428 0.247773 0.237796C 0.412185 0.0792661 0.608564 -2.82214e-06 0.838056 -2.82214e-06C 1.06641 -2.82214e-06 1.26278 0.0792661 1.42834 0.237796C 1.59275 0.397428 1.67496 0.58568 1.67496 0.808063C 1.67496 1.03265 1.59275 1.22421 1.42834 1.38274C 1.26735 1.53797 1.07097 1.61503 0.838056 1.61503C 0.600572 1.61503 0.401896 1.53797 0.240909 1.38274C 0.0810642 1.22751 1.67248e-06 1.03375 1.67248e-06 0.801461" transform="translate(571.82 170.008) scale(2)" fill="white"/>
<path id="Vector_35" d="M -1.61673e-05 0.801461C -1.61673e-05 0.584583 0.0833435 0.397428 0.247755 0.237796C 0.412167 0.0792661 0.608546 -2.82214e-06 0.838038 -2.82214e-06C 1.06639 -2.82214e-06 1.26277 0.0792661 1.42832 0.237796C 1.59273 0.397428 1.67494 0.58568 1.67494 0.808063C 1.67494 1.03265 1.59273 1.22421 1.42832 1.38274C 1.26733 1.53797 1.07095 1.61503 0.838038 1.61503C 0.600554 1.61503 0.401913 1.53797 0.240926 1.38274C 0.0810812 1.22751 -1.61673e-05 1.03375 -1.61673e-05 0.801461" transform="translate(579.434 170.008) scale(2)" fill="white"/>
</g>
</g>
</svg>
